<svg viewBox="0 0 490 438" xmlns="http://www.w3.org/2000/svg"><g transform="translate(0 .9)" fill-rule="nonzero" fill="none"><path d="M245 116.1c131.309 0 245 45.574 245 102 0 56.424-113.691 102-245 102S0 274.523 0 218.1c0-56.426 113.691-102 245-102zm0 22c-60.669 0-118.355 10.14-161.37 27.384C44.126 181.32 22 201.308 22 218.1c0 16.79 22.126 36.78 61.63 52.615 43.015 17.243 100.701 27.385 161.37 27.385 60.669 0 118.355-10.142 161.37-27.385C445.874 254.878 468 234.89 468 218.099c0-16.79-22.126-36.779-61.63-52.615C363.355 148.241 305.67 138.1 245 138.1z" fill="#5ADAFD"/><path d="M333.335 167.1c65.654 113.716 83.03 234.963 34.165 263.175-48.865 28.213-145.18-47.46-210.835-161.176C91.011 155.382 73.635 34.135 122.5 5.923c48.865-28.213 145.18 47.46 210.835 161.176zm-19.053 11c-30.334-52.542-67.96-97.428-104.401-126.059-33.466-26.293-61.84-35.461-76.381-27.066-14.541 8.396-20.788 37.552-14.75 79.68 6.574 45.875 26.634 100.903 56.968 153.444 30.334 52.54 67.96 97.428 104.401 126.058 33.466 26.293 61.84 35.461 76.381 27.066 14.541-8.396 20.788-37.552 14.75-79.68-6.574-45.875-26.634-100.903-56.968-153.444z" fill="#5ADAFD"/><path d="M333.335 269.1C267.68 382.815 171.365 458.487 122.5 430.274c-48.865-28.212-31.489-149.46 34.165-263.176C222.32 53.382 318.635-22.29 367.5 5.923c48.865 28.212 31.489 149.46-34.165 263.176zm-19.053-11c30.334-52.542 50.394-107.57 56.969-153.444 6.037-42.13-.21-71.285-14.751-79.68-14.541-8.396-42.915.772-76.38 27.065-36.441 28.63-74.068 73.517-104.402 126.058-30.334 52.54-50.394 107.57-56.969 153.443-6.037 42.13.21 71.285 14.751 79.68 14.541 8.396 42.915-.772 76.38-27.065 36.441-28.63 74.068-73.517 104.402-126.058z" fill="#5ADAFD"/><circle fill="#61DAFB" cx="245" cy="218.099" r="45"/></g></svg>